<?xml version="1.0" encoding="utf-8"?>
<!-- Generator: Adobe Illustrator 17.0.0, SVG Export Plug-In . SVG Version: 6.00 Build 0)  -->
<!DOCTYPE svg PUBLIC "-//W3C//DTD SVG 1.1//EN" "http://www.w3.org/Graphics/SVG/1.1/DTD/svg11.dtd">
<svg version="1.1" id="Capa_1" xmlns:sketch="http://www.bohemiancoding.com/sketch/ns"
	 xmlns="http://www.w3.org/2000/svg" xmlns:xlink="http://www.w3.org/1999/xlink" x="0px" y="0px" width="50px" height="50px"
	 viewBox="0 0 50 50" enable-background="new 0 0 50 50" xml:space="preserve">
<title></title>
<g id="LinkedIn">
	<path id="Oval-1" fill="#F5034D" d="M30.58,20.12c-2.5,0-3.62,1.41-4.25,2.4v-2.06h-4.71c0.06,1.36,0,14.54,0,14.54h4.71v-8.12
		c0-0.43,0.03-0.87,0.16-1.18c0.34-0.87,1.11-1.77,2.41-1.77c1.71,0,2.39,1.34,2.39,3.29V35H36v-8.34
		C36,22.2,33.68,20.12,30.58,20.12z M16.66,13C15.05,13,14,14.09,14,15.51c0,1.4,1.02,2.51,2.6,2.51h0.03
		c1.65,0,2.67-1.11,2.67-2.51C19.27,14.09,18.28,13,16.66,13z M14,34.66h4.71V20.12H14V34.66z M30.58,20.12
		c-2.5,0-3.62,1.41-4.25,2.4v-2.06h-4.71c0.06,1.36,0,14.54,0,14.54h4.71v-8.12c0-0.43,0.03-0.87,0.16-1.18
		c0.34-0.87,1.11-1.77,2.41-1.77c1.71,0,2.39,1.34,2.39,3.29V35H36v-8.34C36,22.2,33.68,20.12,30.58,20.12z M16.66,13
		C15.05,13,14,14.09,14,15.51c0,1.4,1.02,2.51,2.6,2.51h0.03c1.65,0,2.67-1.11,2.67-2.51C19.27,14.09,18.28,13,16.66,13z M14,34.66
		h4.71V20.12H14V34.66z M14,20.12v14.54h4.71V20.12H14z M16.66,13C15.05,13,14,14.09,14,15.51c0,1.4,1.02,2.51,2.6,2.51h0.03
		c1.65,0,2.67-1.11,2.67-2.51C19.27,14.09,18.28,13,16.66,13z M30.58,20.12c-2.5,0-3.62,1.41-4.25,2.4v-2.06h-4.71
		c0.06,1.36,0,14.54,0,14.54h4.71v-8.12c0-0.43,0.03-0.87,0.16-1.18c0.34-0.87,1.11-1.77,2.41-1.77c1.71,0,2.39,1.34,2.39,3.29V35
		H36v-8.34C36,22.2,33.68,20.12,30.58,20.12z"/>
	<path fill="#F5034D" d="M25,0C11.19,0,0,11.19,0,25s11.19,25,25,25s25-11.19,25-25S38.81,0,25,0z M25,47C12.85,47,3,37.15,3,25
		S12.85,3,25,3s22,9.85,22,22S37.15,47,25,47z"/>
	<path display="none" fill="#F5034D" d="M25,3C12.85,3,3,12.85,3,25s9.85,22,22,22s22-9.85,22-22S37.15,3,25,3z M18.71,34.66H14
		V20.12h4.71V34.66z M16.63,18.02H16.6c-1.58,0-2.6-1.11-2.6-2.51c0-1.42,1.05-2.51,2.66-2.51c1.62,0,2.61,1.09,2.64,2.51
		C19.3,16.91,18.28,18.02,16.63,18.02z M36,35h-4.71v-7.78c0-1.95-0.68-3.29-2.39-3.29c-1.3,0-2.07,0.9-2.41,1.77
		c-0.13,0.31-0.16,0.75-0.16,1.18V35h-4.71c0,0,0.06-13.18,0-14.54h4.71v2.06c0.63-0.99,1.75-2.4,4.25-2.4
		c3.1,0,5.42,2.08,5.42,6.54V35z"/>
</g>
</svg>
