<?xml version="1.0" encoding="utf-8"?>
<!-- Generator: Adobe Illustrator 17.0.0, SVG Export Plug-In . SVG Version: 6.00 Build 0)  -->
<!DOCTYPE svg PUBLIC "-//W3C//DTD SVG 1.1//EN" "http://www.w3.org/Graphics/SVG/1.1/DTD/svg11.dtd">
<svg version="1.1" id="Capa_1" xmlns:sketch="http://www.bohemiancoding.com/sketch/ns"
	 xmlns="http://www.w3.org/2000/svg" xmlns:xlink="http://www.w3.org/1999/xlink" x="0px" y="0px" width="50px" height="50px"
	 viewBox="0 0 50 50" enable-background="new 0 0 50 50" xml:space="preserve">
<title></title>
<path id="Oval-1" display="none" d="M25,3C12.85,3,3,12.85,3,25s9.85,22,22,22s22-9.85,22-22S37.15,3,25,3z M30.07,25h-3.26v11
	h-4.87V25H19.5v-3.79h2.44v-2.28c0-3.09,1.37-4.93,5.28-4.93h3.26v3.79h-2.04c-1.52,0-1.62,0.53-1.62,1.52l-0.01,1.9h3.69L30.07,25z
	 M25,3C12.85,3,3,12.85,3,25s9.85,22,22,22s22-9.85,22-22S37.15,3,25,3z M30.07,25h-3.26v11h-4.87V25H19.5v-3.79h2.44v-2.28
	c0-3.09,1.37-4.93,5.28-4.93h3.26v3.79h-2.04c-1.52,0-1.62,0.53-1.62,1.52l-0.01,1.9h3.69L30.07,25z"/>
<path fill="#F5034D" d="M25,0C11.19,0,0,11.19,0,25s11.19,25,25,25s25-11.19,25-25S38.81,0,25,0z M25,47C12.85,47,3,37.15,3,25
	S12.85,3,25,3s22,9.85,22,22S37.15,47,25,47z"/>
<path fill="#F5034D" d="M30.5,21.21L30.07,25h-3.26v11h-4.87V25H19.5v-3.79h2.44v-2.28c0-3.09,1.37-4.93,5.28-4.93h3.26v3.79h-2.04
	c-1.52,0-1.62,0.53-1.62,1.52l-0.01,1.9H30.5z"/>
</svg>
