<?xml version="1.0" encoding="utf-8"?>
<!-- Generator: Adobe Illustrator 17.0.0, SVG Export Plug-In . SVG Version: 6.00 Build 0)  -->
<!DOCTYPE svg PUBLIC "-//W3C//DTD SVG 1.1//EN" "http://www.w3.org/Graphics/SVG/1.1/DTD/svg11.dtd">
<svg version="1.1" id="Capa_1" xmlns:sketch="http://www.bohemiancoding.com/sketch/ns"
	 xmlns="http://www.w3.org/2000/svg" xmlns:xlink="http://www.w3.org/1999/xlink" x="0px" y="0px" width="50px" height="50px"
	 viewBox="0 0 50 50" enable-background="new 0 0 50 50" xml:space="preserve">
<title></title>
<path id="Oval-1" display="none" fill="#FFFFFF" d="M25,3C12.85,3,3,12.85,3,25s9.85,22,22,22s22-9.85,22-22S37.15,3,25,3z
	 M35.92,18.06c-0.09,0.16-0.59,0.75-1.11,1.29c-0.89,0.92-0.94,1.02-0.94,1.79c0,1.19-0.54,3.67-1.08,5.03
	c-1,2.55-3.15,5.19-5.29,6.51c-3.02,1.86-7.05,2.33-10.43,1.24C15.94,33.55,14,32.61,14,32.45c0-0.06,0.59-0.12,1.3-0.14
	c1.5-0.03,2.99-0.47,4.26-1.24l0.86-0.54l-0.98-0.35c-1.4-0.5-2.66-1.66-2.98-2.75c-0.09-0.35-0.06-0.37,0.83-0.37l0.92-0.02
	l-0.78-0.38c-0.92-0.49-1.76-1.31-2.17-2.15c-0.31-0.6-0.69-2.13-0.58-2.25c0.04-0.05,0.37,0.06,0.75,0.19
	c1.1,0.42,1.24,0.32,0.6-0.39c-1.19-1.27-1.55-3.17-0.98-4.96l0.27-0.81l1.05,1.09c2.14,2.2,4.67,3.51,7.57,3.9l0.79,0.1l-0.05-0.83
	c-0.14-2.13,1.11-4.07,3.1-4.83c0.73-0.26,1.97-0.3,2.78-0.06c0.32,0.1,0.93,0.43,1.36,0.73l0.77,0.56l0.86-0.29
	c0.48-0.15,1.12-0.4,1.4-0.57c0.27-0.15,0.51-0.23,0.51-0.18c0,0.28-0.59,1.26-1.08,1.79c-0.67,0.76-0.48,0.82,0.87,0.32
	C36.06,17.74,36.08,17.74,35.92,18.06z M25,3C12.85,3,3,12.85,3,25s9.85,22,22,22s22-9.85,22-22S37.15,3,25,3z M35.92,18.06
	c-0.09,0.16-0.59,0.75-1.11,1.29c-0.89,0.92-0.94,1.02-0.94,1.79c0,1.19-0.54,3.67-1.08,5.03c-1,2.55-3.15,5.19-5.29,6.51
	c-3.02,1.86-7.05,2.33-10.43,1.24C15.94,33.55,14,32.61,14,32.45c0-0.06,0.59-0.12,1.3-0.14c1.5-0.03,2.99-0.47,4.26-1.24l0.86-0.54
	l-0.98-0.35c-1.4-0.5-2.66-1.66-2.98-2.75c-0.09-0.35-0.06-0.37,0.83-0.37l0.92-0.02l-0.78-0.38c-0.92-0.49-1.76-1.31-2.17-2.15
	c-0.31-0.6-0.69-2.13-0.58-2.25c0.04-0.05,0.37,0.06,0.75,0.19c1.1,0.42,1.24,0.32,0.6-0.39c-1.19-1.27-1.55-3.17-0.98-4.96
	l0.27-0.81l1.05,1.09c2.14,2.2,4.67,3.51,7.57,3.9l0.79,0.1l-0.05-0.83c-0.14-2.13,1.11-4.07,3.1-4.83c0.73-0.26,1.97-0.3,2.78-0.06
	c0.32,0.1,0.93,0.43,1.36,0.73l0.77,0.56l0.86-0.29c0.48-0.15,1.12-0.4,1.4-0.57c0.27-0.15,0.51-0.23,0.51-0.18
	c0,0.28-0.59,1.26-1.08,1.79c-0.67,0.76-0.48,0.82,0.87,0.32C36.06,17.74,36.08,17.74,35.92,18.06z"/>
<path fill="#F5034D" d="M25,0C11.19,0,0,11.19,0,25s11.19,25,25,25s25-11.19,25-25S38.81,0,25,0z M25,47C12.85,47,3,37.15,3,25
	S12.85,3,25,3s22,9.85,22,22S37.15,47,25,47z"/>
<path fill="#F5034D" d="M35.92,18.06c-0.09,0.16-0.59,0.75-1.11,1.29c-0.89,0.92-0.94,1.02-0.94,1.79c0,1.19-0.54,3.67-1.08,5.03
	c-1,2.55-3.15,5.19-5.29,6.51c-3.02,1.86-7.05,2.33-10.43,1.24C15.94,33.55,14,32.61,14,32.45c0-0.06,0.59-0.12,1.3-0.14
	c1.5-0.03,2.99-0.47,4.26-1.24l0.86-0.54l-0.98-0.35c-1.4-0.5-2.66-1.66-2.98-2.75c-0.09-0.35-0.06-0.37,0.83-0.37l0.92-0.02
	l-0.78-0.38c-0.92-0.49-1.76-1.31-2.17-2.15c-0.31-0.6-0.69-2.13-0.58-2.25c0.04-0.05,0.37,0.06,0.75,0.19
	c1.1,0.42,1.24,0.32,0.6-0.39c-1.19-1.27-1.55-3.17-0.98-4.96l0.27-0.81l1.05,1.09c2.14,2.2,4.67,3.51,7.57,3.9l0.79,0.1l-0.05-0.83
	c-0.14-2.13,1.11-4.07,3.1-4.83c0.73-0.26,1.97-0.3,2.78-0.06c0.32,0.1,0.93,0.43,1.36,0.73l0.77,0.56l0.86-0.29
	c0.48-0.15,1.12-0.4,1.4-0.57c0.27-0.15,0.51-0.23,0.51-0.18c0,0.28-0.59,1.26-1.08,1.79c-0.67,0.76-0.48,0.82,0.87,0.32
	C36.06,17.74,36.08,17.74,35.92,18.06z"/>
</svg>
